<mxfile host="app.diagrams.net" agent="Mozilla/5.0 (Windows NT 10.0; Win64; x64) AppleWebKit/537.36 (KHTML, like Gecko) Chrome/126.0.0.0 Safari/537.36" version="24.7.4">
  <diagram name="Page-1" id="e-6va2bBN1k2sncNyGyN">
    <mxGraphModel dx="226" dy="546" grid="0" gridSize="10" guides="1" tooltips="1" connect="1" arrows="1" fold="1" page="0" pageScale="1" pageWidth="850" pageHeight="1100" math="0" shadow="0">
      <root>
        <mxCell id="0" />
        <mxCell id="1" parent="0" />
        <mxCell id="sg5d6Vpu2tDvEjUmxv_l-1" value="&lt;h1 style=&quot;font-size: 1.25em; margin: 0.42em 0px; unicode-bidi: plaintext; text-align: start; font-family: sans-serif;&quot;&gt;Recreate Bruno Simon&#39;s Portfolio&lt;/h1&gt;" style="swimlane;fontStyle=0;childLayout=stackLayout;horizontal=1;startSize=30;horizontalStack=0;resizeParent=1;resizeParentMax=0;resizeLast=0;collapsible=1;marginBottom=0;whiteSpace=wrap;html=1;" vertex="1" parent="1">
          <mxGeometry x="34" y="140" width="639" height="90" as="geometry" />
        </mxCell>
        <mxCell id="sg5d6Vpu2tDvEjUmxv_l-2" value="https://iv.datura.network/watch?v=duGht1inRjY&amp;amp;autoplay=1&amp;amp;continue=1" style="text;strokeColor=none;fillColor=none;align=left;verticalAlign=middle;spacingLeft=4;spacingRight=4;overflow=hidden;points=[[0,0.5],[1,0.5]];portConstraint=eastwest;rotatable=0;whiteSpace=wrap;html=1;" vertex="1" parent="sg5d6Vpu2tDvEjUmxv_l-1">
          <mxGeometry y="30" width="639" height="30" as="geometry" />
        </mxCell>
        <mxCell id="sg5d6Vpu2tDvEjUmxv_l-3" value="https://github.com/brunosimon/folio-2019/blob/dependabot/npm_and_yarn/acorn-6.4.1/src/javascript/Application.js" style="text;strokeColor=none;fillColor=none;align=left;verticalAlign=middle;spacingLeft=4;spacingRight=4;overflow=hidden;points=[[0,0.5],[1,0.5]];portConstraint=eastwest;rotatable=0;whiteSpace=wrap;html=1;" vertex="1" parent="sg5d6Vpu2tDvEjUmxv_l-1">
          <mxGeometry y="60" width="639" height="30" as="geometry" />
        </mxCell>
      </root>
    </mxGraphModel>
  </diagram>
</mxfile>
